# xmcd CD database file
#
# Track frame offsets:
#	150
#	33605
#	62030
#	91635
#
# Disc length: 2340 seconds
#
# Revision: 0
# Processed by: cddbd v1.5.2PL0 Copyright (c) Steve Scherf et al.
# Submitted via: CDex 1.51
#
DISCID=29092204
DTITLE=Mal Waldron - On Steinway
DYEAR=1972
DGENRE=Jazz
TTITLE0=Portrait of a Bullfighter
TTITLE1=One for Bud
TTITLE2=For Eric Satie
TTITLE3=Paris Reunited
EXTD=YEAR: 1972
EXTT0=
EXTT1=
EXTT2=
EXTT3=
PLAYORDER=
